<svg xmlns="http://www.w3.org/2000/svg" height="512" width="512" xmlns:v="https://vecta.io/nano"><path d="M373.889 287.056a20 20 0 0 0-35.778 0l-60 120c-4.939 9.879-.936 21.893 8.944 26.833s21.893.934 26.833-8.944L328.361 396h55.278l14.472 28.944c4.942 9.882 16.955 13.883 26.833 8.944s13.884-16.954 8.944-26.833zM348.361 356L356 340.721 363.639 356zM320 220V100C320 44.86 275.14 0 220 0H100C44.86 0 0 44.86 0 100v120c0 55.14 44.86 100 100 100h120c55.14 0 100-44.86 100-100zm-280 0V100c0-33.084 26.916-60 60-60h120c33.084 0 60 26.916 60 60v120c0 33.084-26.916 60-60 60H100c-33.084 0-60-26.916-60-60zm372-28h-40c-11.046 0-20 8.954-20 20s8.954 20 20 20h40c33.084 0 60 26.916 60 60v120c0 33.084-26.916 60-60 60H292c-33.084 0-60-26.916-60-60v-40c0-11.046-8.954-20-20-20s-20 8.954-20 20v40c0 55.14 44.86 100 100 100h120c55.141 0 100-44.86 100-100V292c0-55.14-44.859-100-100-100zm-203.055 10.112l-8.446-4.224c-4.024-2.012-7.872-4.255-11.556-6.688 3.116-4.046 6.036-8.261 8.738-12.634 11.07-17.912 18.174-37.862 20.967-58.567H220c11.046 0 20-8.954 20-20s-8.954-20-20-20H100c-11.046 0-20 8.954-20 20s8.954 20 20 20h1.352c2.793 20.705 9.897 40.655 20.967 58.567 2.703 4.373 5.622 8.587 8.739 12.634a111.43 111.43 0 0 1-11.557 6.688l-8.446 4.223c-9.879 4.94-13.883 16.954-8.943 26.833 4.931 9.862 16.938 13.892 26.833 8.943l8.445-4.223c7.975-3.988 15.532-8.667 22.61-13.954 7.078 5.287 14.634 9.966 22.609 13.953l8.446 4.223c9.918 4.959 21.913.896 26.833-8.943 4.94-9.878.936-21.891-8.943-26.831zM178.181 120c-2.881 15.731-9.123 30.438-18.181 43.231A108.59 108.59 0 0 1 141.819 120z"/></svg>