<svg id="Layer_1" enable-background="new 0 0 512.035 512.035" height="512" viewBox="0 0 512.035 512.035" width="512" xmlns="http://www.w3.org/2000/svg"><path d="m407.554 62.854c-40.333-40.506-94.066-62.814-151.302-62.814h-.247c-115.256-2.359-216.371 99.143-213.998 214.357 3.017 81.355 81.282 184.674 142.23 264.051 17.899 21.382 43.979 33.587 71.997 33.587 29-.001 55.926-13.068 73.872-35.852 45.214-56.186 142.845-191.325 139.898-261.788.001-57.277-22.178-111.095-62.45-151.541zm-108.87 388.578c-20.669 27.264-64.148 27.313-84.825.047-82.643-105.233-131.854-192.87-131.854-237.083 0-96.14 78.056-174.355 174-174.355h.247c95.808 0 173.753 78.216 173.753 174.355 0 44.694-47.865 131.09-131.321 237.036zm-41.555-152.395c-46.869 0-85-38.131-85-85 4.669-112.764 165.348-112.731 170 .001 0 46.869-38.131 84.999-85 84.999zm0-130c-24.813 0-45 20.187-45 45 2.472 59.699 87.537 59.681 90 0 0-24.813-20.186-45-45-45z"/></svg>