<svg xmlns="http://www.w3.org/2000/svg" width="30" height="20" fill="none" xmlns:v="https://vecta.io/nano"><path d="M10.909 0S7.46 0 3.69 2.463c0 0-3.69 6.194-3.69 13.955 0 0 2.166 3.508 7.781 3.582l1.845-1.866c-3.369-.97-4.492-2.91-4.492-2.91 4.412 3.806 15.802 3.657 19.973 0 0 0-1.283 2.09-4.572 2.91L22.219 20C27.834 19.925 30 16.418 30 16.418c0-7.761-3.69-13.955-3.69-13.955C22.54 0 19.091 0 19.091 0l-.401.299c4.251 1.045 6.979 3.06 6.898 3.134C21.177.299 9.947 0 4.492 3.433c0 0 2.005-1.94 6.658-3.134L10.909 0zm-.722 8.955c.702 0 1.375.275 1.872.765s.775 1.154.775 1.847-.279 1.357-.775 1.847-1.17.765-1.872.765a2.68 2.68 0 0 1-1.013-.199 2.65 2.65 0 0 1-.859-.566 2.61 2.61 0 0 1-.574-.847 2.58 2.58 0 0 1 0-1.999 2.61 2.61 0 0 1 .574-.847 2.65 2.65 0 0 1 .859-.566 2.68 2.68 0 0 1 1.013-.199zm9.305 0c.702 0 1.375.275 1.872.765s.775 1.154.775 1.847-.279 1.357-.775 1.847-1.17.765-1.872.765-1.375-.275-1.872-.765-.775-1.154-.775-1.847.279-1.357.775-1.847 1.17-.765 1.872-.765z" fill="#000"/></svg>