<svg xmlns="http://www.w3.org/2000/svg" width="512" height="512" viewBox="0 0 511.999 511.999"><path d="M148.821 348.693h-4.569a6.254 6.254 0 0 1-6.247-6.246 6.255 6.255 0 0 1 6.247-6.248h4.569a6.254 6.254 0 0 1 6.247 6.247h29.947c0-15.494-9.789-28.74-23.505-33.892v-20.967h-29.947v20.967c-13.716 5.152-23.505 18.398-23.505 33.893 0 19.957 16.237 36.193 36.194 36.193h4.569a6.254 6.254 0 0 1 6.247 6.247 6.254 6.254 0 0 1-6.247 6.246h-4.569a6.254 6.254 0 0 1-6.247-6.246h-29.947c0 15.494 9.79 28.74 23.505 33.892v20.94h29.947v-20.94c13.716-5.152 23.505-18.399 23.505-33.892 0-19.957-16.237-36.194-36.194-36.194zm100.537-170.651a44.67 44.67 0 0 0 2.547-14.91v-2.405h21.303V130.78h-21.303v-13.915c0-8.221 6.688-14.911 14.911-14.911a14.93 14.93 0 0 1 14.911 14.911h29.947c0-24.734-20.122-44.858-44.858-44.858s-44.858 20.122-44.858 44.858v13.915h-14.911v29.947h14.911v2.405a14.93 14.93 0 0 1-14.911 14.91v29.947h99.739v-29.947h-57.428zM417.56 314.564l-23.32-18.789-28.376 35.221-28.376-35.221-23.32 18.789 20.706 25.699h-11.76v29.947h27.776v10.894h-27.776v29.947h27.776v26.581h29.948v-26.581h28.449v-29.947h-28.449V370.21h28.449v-29.947h-12.433zm-34.54-94.501a145.32 145.32 0 0 0 20.065-73.847C403.084 65.592 337.492 0 256.868 0S110.652 65.592 110.652 146.217a145.31 145.31 0 0 0 19.955 73.66C57.294 227.842.04 290.108.04 365.504c0 80.778 65.718 146.495 146.496 146.495 42.246 0 81.893-18.094 109.511-49.198 26.853 30.164 65.951 49.198 109.416 49.198 80.778 0 146.496-65.717 146.496-146.495.001-74.837-56.408-136.739-128.939-145.441zM256.868 29.947c64.112 0 116.27 52.158 116.27 116.27s-52.158 116.27-116.27 116.27-116.27-52.158-116.27-116.27 52.159-116.27 116.27-116.27zM238.03 437.696c-22.045 27.93-55.592 44.357-91.493 44.357-64.266 0-116.549-52.284-116.549-116.549s52.284-116.549 116.549-116.549c1.761 0 4.271.151 6.725.333 22.557 22.673 52.482 38.004 85.837 42.063-13.11 22.311-20.131 47.83-20.131 74.153-.001 26.231 6.936 50.872 19.062 72.192zm127.434 44.357c-64.266 0-116.549-52.284-116.549-116.549 0-27.246 9.453-53.408 26.727-74.273 33.065-4.256 62.701-19.603 85.059-42.174 1.588-.064 3.179-.103 4.763-.103 64.266 0 116.549 52.284 116.549 116.549s-52.284 116.55-116.549 116.55z"/></svg>