<svg xmlns="http://www.w3.org/2000/svg" width="26" height="26" fill="none" xmlns:v="https://vecta.io/nano"><path d="M20.027 16.022c.034 1.485 1.346 2.693 2.831 2.659.656-.034 1.277-.276 1.726-.691.207-.207.518-.311.829-.311h.552v7.389c0 .483-.38.863-.863.863h-7.423v-.552c0-.311.138-.621.345-.863.414-.483.691-1.105.691-1.795v-.276-.069c0-.069 0-.138-.035-.207 0-.035 0-.069-.034-.104 0-.069-.035-.104-.035-.173 0-.035-.035-.069-.035-.104-.034-.069-.034-.104-.069-.173 0-.034-.035-.069-.035-.104-.034-.034-.034-.103-.069-.138 0-.035-.035-.069-.035-.104-.034-.035-.069-.104-.104-.138s-.034-.069-.069-.069c-.034-.035-.069-.104-.104-.138l-.069-.069-.104-.104c-.035-.035-.069-.035-.069-.069-.035-.035-.069-.069-.138-.104-.035-.035-.069-.035-.069-.069-.035-.035-.104-.069-.138-.104s-.069-.035-.104-.069-.104-.069-.138-.069-.069-.035-.104-.035c-.035-.034-.104-.034-.138-.069-.035 0-.069-.035-.104-.035s-.104-.034-.138-.069c-.034 0-.069 0-.103-.034-.035 0-.104-.035-.138-.035h-.104-.173-.138-.138-.034-.138-.138c-.069 0-.104.035-.173.035H15.4a.49.49 0 0 0-.207.069h-.034c-.069.034-.173.069-.242.104a2.7 2.7 0 0 0-1.312 1.243v.035l-.104.207s0 .034-.034.069c-.035.069-.035.104-.069.173 0 .035-.034.069-.034.104s-.034.104-.034.138-.034.069-.034.104v.138.138.138.138.035.104.138.104c0 .035 0 .104.034.138 0 .035 0 .069.034.104 0 .035.034.104.034.138s.035.069.035.104.034.069.034.104.034.069.034.104.034.069.034.104.035.069.069.104.034.069.069.104.035.069.069.104.035.069.069.104.034.069.069.104l.069.069c.207.242.345.552.345.863V26H6.837c-.483 0-.863-.38-.863-.863v-7.492h-.552c-.311 0-.587.104-.829.311-.449.414-1.07.691-1.726.691-1.485.069-2.797-1.139-2.831-2.659a2.73 2.73 0 0 1 2.728-2.797c.691 0 1.312.242 1.795.691.242.207.518.345.863.345h.552V6.803c0-.483.38-.863.863-.863h7.423v-.552c0-.311-.104-.587-.311-.829-.414-.449-.691-1.07-.691-1.726A2.74 2.74 0 0 1 15.883.001a2.73 2.73 0 0 1 2.797 2.728c0 .691-.242 1.312-.691 1.795-.207.242-.345.518-.345.863v.552h7.458c.483 0 .863.38.863.863v7.423h-.552c-.311 0-.622-.138-.863-.345-.483-.414-1.105-.691-1.795-.691-1.519.034-2.762 1.277-2.728 2.831z" fill="#000"/></svg>